<svg width="391" height="48" viewBox="0 0 391 48" fill="none" xmlns="http://www.w3.org/2000/svg">
<g filter="url(#filter0_d_2061_14)">
<path d="M36.816 40.752H34.272C33.856 40.752 33.648 40.56 33.648 40.176L33.696 36.864C30.88 39.68 27.12 41.088 22.416 41.088C17.744 41.088 13.84 39.456 10.704 36.192C7.56805 32.928 6.00004 28.64 6.00004 23.328C6.00004 19.776 6.78404 16.656 8.35205 13.968C9.95204 11.28 11.968 9.27995 14.4 7.96795C16.864 6.65595 19.52 5.99995 22.368 5.99995C27.264 5.99995 30.784 7.51995 32.928 10.56L32.88 6.86395C32.816 6.47995 33.008 6.28795 33.456 6.28795H36.144C36.56 6.28795 36.768 6.47995 36.768 6.86395V16.752C36.768 17.136 36.56 17.328 36.144 17.328H33.12C32.736 17.328 32.544 17.136 32.544 16.752V16.176C32.544 14.768 31.568 13.376 29.616 12C27.696 10.624 25.232 9.93595 22.224 9.93595C19.216 9.93595 16.496 11.184 14.064 13.68C11.664 16.144 10.464 19.456 10.464 23.616C10.464 27.744 11.68 31.024 14.112 33.456C16.544 35.856 19.264 37.056 22.272 37.056C25.28 37.056 27.648 36.576 29.376 35.616C31.136 34.656 32.448 33.52 33.312 32.208V28.464H24.384C24 28.464 23.808 28.256 23.808 27.84V25.632C23.808 25.248 24 25.056 24.384 25.056H36.816C37.2 25.056 37.392 25.248 37.392 25.632V40.176C37.392 40.56 37.2 40.752 36.816 40.752ZM73.7235 40.752H69.5475C68.3955 40.752 67.4355 39.984 66.6675 38.448L62.1555 29.28C61.7715 28.48 61.3555 27.888 60.9075 27.504C60.4915 27.12 59.8995 26.912 59.1315 26.88H53.0355V37.152H57.3555C57.7395 37.152 57.9315 37.344 57.9315 37.728V40.176C57.9315 40.56 57.7395 40.752 57.3555 40.752H45.2115C44.7955 40.752 44.5875 40.56 44.5875 40.176V37.728C44.5875 37.344 44.7955 37.152 45.2115 37.152H48.8595V9.88795H45.2115C44.7955 9.88795 44.5875 9.69595 44.5875 9.31195V6.86395C44.5875 6.47995 44.7955 6.28795 45.2115 6.28795H59.9955C63.4195 6.28795 66.2035 7.19995 68.3475 9.02395C70.4915 10.816 71.5635 13.36 71.5635 16.656C71.5635 21.68 69.2115 24.816 64.5075 26.064C65.1155 26.544 65.8675 27.616 66.7635 29.28L70.7955 37.152H73.7235C74.1075 37.152 74.2995 37.344 74.2995 37.728V40.176C74.2995 40.56 74.1075 40.752 73.7235 40.752ZM53.0355 23.472H59.1795C64.6195 23.472 67.3395 21.248 67.3395 16.8C67.3395 12.192 64.6195 9.88795 59.1795 9.88795H53.0355V23.472ZM106.662 40.752H81.174C80.758 40.752 80.55 40.56 80.55 40.176V37.728C80.55 37.344 80.758 37.152 81.174 37.152H84.822V9.88795H81.174C80.758 9.88795 80.55 9.69595 80.55 9.31195V6.86395C80.55 6.47995 80.758 6.28795 81.174 6.28795H106.662C107.078 6.28795 107.286 6.47995 107.286 6.86395V14.592C107.286 15.008 107.078 15.216 106.662 15.216H104.07C103.686 15.216 103.494 15.008 103.494 14.592V9.88795H88.998V21.792H101.142C101.558 21.792 101.766 21.984 101.766 22.368V24.816C101.766 25.2 101.558 25.392 101.142 25.392H88.998V37.152H103.446V32.448C103.446 32.064 103.654 31.872 104.07 31.872H106.662C107.078 31.872 107.286 32.064 107.286 32.448V40.176C107.286 40.56 107.078 40.752 106.662 40.752ZM140.421 40.752H114.933C114.517 40.752 114.309 40.56 114.309 40.176V37.728C114.309 37.344 114.517 37.152 114.933 37.152H118.581V9.88795H114.933C114.517 9.88795 114.309 9.69595 114.309 9.31195V6.86395C114.309 6.47995 114.517 6.28795 114.933 6.28795H140.421C140.837 6.28795 141.045 6.47995 141.045 6.86395V14.592C141.045 15.008 140.837 15.216 140.421 15.216H137.829C137.445 15.216 137.253 15.008 137.253 14.592V9.88795H122.757V21.792H134.901C135.317 21.792 135.525 21.984 135.525 22.368V24.816C135.525 25.2 135.317 25.392 134.901 25.392H122.757V37.152H137.205V32.448C137.205 32.064 137.413 31.872 137.829 31.872H140.421C140.837 31.872 141.045 32.064 141.045 32.448V40.176C141.045 40.56 140.837 40.752 140.421 40.752ZM177.925 40.752H175.333C174.725 40.752 174.245 40.64 173.893 40.416C173.541 40.16 173.205 39.776 172.885 39.264L159.013 17.568L156.613 13.536H156.517V37.152H160.213C160.629 37.152 160.837 37.344 160.837 37.728V40.176C160.837 40.56 160.629 40.752 160.213 40.752H148.693C148.277 40.752 148.069 40.56 148.069 40.176V37.728C148.069 37.344 148.277 37.152 148.693 37.152H152.341V9.88795H148.693C148.277 9.88795 148.069 9.69595 148.069 9.31195V6.86395C148.069 6.47995 148.277 6.28795 148.693 6.28795H155.413C156.341 6.28795 157.157 6.83195 157.861 7.91995L171.541 29.328L174.277 33.984H174.373V9.88795H170.677C170.293 9.88795 170.101 9.69595 170.101 9.31195V6.86395C170.101 6.47995 170.293 6.28795 170.677 6.28795H182.245C182.629 6.28795 182.821 6.47995 182.821 6.86395V9.31195C182.821 9.69595 182.629 9.88795 182.245 9.88795H178.549V40.176C178.549 40.56 178.341 40.752 177.925 40.752ZM216.068 40.752H189.812C189.396 40.752 189.188 40.56 189.188 40.176V37.728C189.188 37.344 189.396 37.152 189.812 37.152H193.46V9.88795H189.812C189.396 9.88795 189.188 9.69595 189.188 9.31195V6.86395C189.188 6.47995 189.396 6.28795 189.812 6.28795H201.284C201.7 6.28795 201.908 6.49595 201.908 6.91195V9.26395C201.908 9.67995 201.7 9.88795 201.284 9.88795H197.636V37.152H212.9V32.448C212.9 32.064 213.108 31.872 213.524 31.872H216.116C216.5 31.872 216.692 32.064 216.692 32.448V40.128C216.692 40.544 216.484 40.752 216.068 40.752ZM234.013 40.752H222.493C222.077 40.752 221.869 40.56 221.869 40.176V37.728C221.869 37.344 222.077 37.152 222.493 37.152H226.141V9.88795H222.493C222.077 9.88795 221.869 9.69595 221.869 9.31195V6.86395C221.869 6.47995 222.077 6.28795 222.493 6.28795H234.013C234.429 6.28795 234.637 6.47995 234.637 6.86395V9.31195C234.637 9.69595 234.429 9.88795 234.013 9.88795H230.317V37.152H234.013C234.429 37.152 234.637 37.344 234.637 37.728V40.176C234.637 40.56 234.429 40.752 234.013 40.752ZM270.882 40.752H268.338C267.922 40.752 267.714 40.56 267.714 40.176L267.762 36.864C264.946 39.68 261.186 41.088 256.482 41.088C251.81 41.088 247.906 39.456 244.77 36.192C241.634 32.928 240.066 28.64 240.066 23.328C240.066 19.776 240.85 16.656 242.418 13.968C244.018 11.28 246.034 9.27995 248.466 7.96795C250.93 6.65595 253.586 5.99995 256.434 5.99995C261.33 5.99995 264.85 7.51995 266.994 10.56L266.946 6.86395C266.882 6.47995 267.074 6.28795 267.522 6.28795H270.21C270.626 6.28795 270.834 6.47995 270.834 6.86395V16.752C270.834 17.136 270.626 17.328 270.21 17.328H267.186C266.802 17.328 266.61 17.136 266.61 16.752V16.176C266.61 14.768 265.634 13.376 263.682 12C261.762 10.624 259.298 9.93595 256.29 9.93595C253.282 9.93595 250.562 11.184 248.13 13.68C245.73 16.144 244.53 19.456 244.53 23.616C244.53 27.744 245.746 31.024 248.178 33.456C250.61 35.856 253.33 37.056 256.338 37.056C259.346 37.056 261.714 36.576 263.442 35.616C265.202 34.656 266.514 33.52 267.378 32.208V28.464H258.45C258.066 28.464 257.874 28.256 257.874 27.84V25.632C257.874 25.248 258.066 25.056 258.45 25.056H270.882C271.266 25.056 271.458 25.248 271.458 25.632V40.176C271.458 40.56 271.266 40.752 270.882 40.752ZM312.829 40.752H301.261C300.877 40.752 300.685 40.56 300.685 40.176V37.728C300.685 37.344 300.877 37.152 301.261 37.152H304.957V25.392H287.101V37.152H290.797C291.213 37.152 291.421 37.344 291.421 37.728V40.176C291.421 40.56 291.213 40.752 290.797 40.752H279.277C278.861 40.752 278.653 40.56 278.653 40.176V37.728C278.653 37.344 278.861 37.152 279.277 37.152H282.925V9.88795H279.277C278.861 9.88795 278.653 9.69595 278.653 9.31195V6.86395C278.653 6.47995 278.861 6.28795 279.277 6.28795H290.797C291.213 6.28795 291.421 6.47995 291.421 6.86395V9.31195C291.421 9.69595 291.213 9.88795 290.797 9.88795H287.101V21.888H304.957V9.88795H301.261C300.877 9.88795 300.685 9.69595 300.685 9.31195V6.86395C300.685 6.47995 300.877 6.28795 301.261 6.28795H312.829C313.213 6.28795 313.405 6.47995 313.405 6.86395V9.31195C313.405 9.69595 313.213 9.88795 312.829 9.88795H309.133V37.152H312.829C313.213 37.152 313.405 37.344 313.405 37.728V40.176C313.405 40.56 313.213 40.752 312.829 40.752ZM341.068 40.752H329.884C329.468 40.752 329.26 40.544 329.26 40.128V37.776C329.26 37.36 329.468 37.152 329.884 37.152H333.532V9.88795H324.46V14.976C324.46 15.424 324.236 15.648 323.788 15.648H321.1C320.652 15.648 320.428 15.424 320.428 14.976V6.91195C320.428 6.49595 320.652 6.28795 321.1 6.28795H350.044C350.492 6.28795 350.716 6.49595 350.716 6.91195V14.976C350.716 15.424 350.492 15.648 350.044 15.648H347.308C346.892 15.648 346.684 15.424 346.684 14.976V9.88795H337.708V37.152H341.068C341.516 37.152 341.74 37.36 341.74 37.776V40.128C341.74 40.544 341.516 40.752 341.068 40.752ZM360.406 40.752H357.718C357.302 40.752 357.094 40.56 357.094 40.176V28.944C357.094 28.528 357.302 28.32 357.718 28.32H360.742C361.126 28.32 361.318 28.528 361.318 28.944V29.952C361.318 30.56 361.686 31.376 362.422 32.4C363.158 33.392 363.894 34.208 364.63 34.848C365.366 35.488 366.342 36.048 367.558 36.528C368.806 36.976 370.15 37.2 371.59 37.2C374.054 37.2 375.974 36.688 377.35 35.664C378.758 34.64 379.462 33.216 379.462 31.392C379.462 30.336 379.062 29.44 378.262 28.704C377.494 27.936 376.486 27.328 375.238 26.88C373.99 26.432 372.598 26.016 371.062 25.632C369.558 25.248 368.038 24.816 366.502 24.336C364.998 23.824 363.622 23.232 362.374 22.56C361.126 21.856 360.102 20.896 359.302 19.68C358.534 18.432 358.15 16.976 358.15 15.312C358.15 12.624 359.158 10.4 361.174 8.63995C363.222 6.87995 365.958 5.99995 369.382 5.99995C373.702 5.99995 376.87 7.26395 378.886 9.79195L378.79 6.81595C378.79 6.43195 378.998 6.23995 379.414 6.23995H382.102C382.486 6.23995 382.678 6.43195 382.678 6.81595V17.28C382.678 17.664 382.486 17.856 382.102 17.856H379.078C378.694 17.856 378.502 17.664 378.502 17.28V15.936C378.502 14.624 377.766 13.296 376.294 11.952C374.822 10.608 372.662 9.93595 369.814 9.93595C367.702 9.93595 365.99 10.448 364.678 11.472C363.398 12.464 362.758 13.744 362.758 15.312C362.758 16.432 363.158 17.392 363.958 18.192C364.758 18.992 365.798 19.632 367.078 20.112C368.358 20.592 369.766 21.04 371.302 21.456C372.838 21.84 374.374 22.272 375.91 22.752C377.446 23.232 378.854 23.808 380.134 24.48C381.414 25.152 382.454 26.08 383.254 27.264C384.054 28.416 384.454 29.792 384.454 31.392C384.454 34.208 383.446 36.528 381.43 38.352C379.414 40.176 376.406 41.088 372.406 41.088C369.462 41.088 367.03 40.496 365.11 39.312C363.19 38.128 361.798 36.848 360.934 35.472L360.982 40.176C360.982 40.56 360.79 40.752 360.406 40.752Z" fill="url(#paint0_linear_2061_14)"/>
</g>
<defs>
<filter id="filter0_d_2061_14" x="0" y="0" width="390.454" height="47.0879" filterUnits="userSpaceOnUse" color-interpolation-filters="sRGB">
<feFlood flood-opacity="0" result="BackgroundImageFix"/>
<feColorMatrix in="SourceAlpha" type="matrix" values="0 0 0 0 0 0 0 0 0 0 0 0 0 0 0 0 0 0 127 0" result="hardAlpha"/>
<feOffset/>
<feGaussianBlur stdDeviation="3"/>
<feComposite in2="hardAlpha" operator="out"/>
<feColorMatrix type="matrix" values="0 0 0 0 0 0 0 0 0 0.901961 0 0 0 0 0.407843 0 0 0 0.25 0"/>
<feBlend mode="normal" in2="BackgroundImageFix" result="effect1_dropShadow_2061_14"/>
<feBlend mode="normal" in="SourceGraphic" in2="effect1_dropShadow_2061_14" result="shape"/>
</filter>
<linearGradient id="paint0_linear_2061_14" x1="195.696" y1="-7.24805" x2="195.696" y2="53.752" gradientUnits="userSpaceOnUse">
<stop stop-color="#20FF85"/>
<stop offset="1" stop-color="#00D661"/>
</linearGradient>
</defs>
</svg>
